# xmcd CD database file
# Copyright (C) 1993-1998 Ti Kan
# 
# Track frame offsets:
#     150
#     9702
#     41795
#     60810
#     85315
#     105510
#     144235
#     155072
#     181397
# 
# Disc length: 2683 seconds
# 
# Revision: 1
# Processed by: cddbd v1.4b41PL1 Copyright (c) Steve Scherf et al.
# Submitted via: DiscPlay 4.0.4
# 
DISCID=6c0a7909
DTITLE=Tomboola Band - Medley 4 The Road
DYEAR=1900
DGENRE=
TTITLE0=From A Jack To A King
TTITLE1=Cotton Fields
TTITLE2=Love Hurts
TTITLE3=Can't Help Falling In Love
TTITLE4=Peaceful Easy Feeling
TTITLE5=California Blues
TTITLE6=Singing The Blues
TTITLE7=Theme For Young Lovers
TTITLE8=Till min kara
EXTD=
EXTT0=
EXTT1=
EXTT2=
EXTT3=
EXTT4=
EXTT5=
EXTT6=
EXTT7=
EXTT8=
PLAYORDER=
